<?xml version="1.0" standalone="no"?>
<!DOCTYPE svg PUBLIC "-//W3C//DTD SVG 20010904//EN"
 "http://www.w3.org/TR/2001/REC-SVG-20010904/DTD/svg10.dtd">
<svg version="1.0" xmlns="http://www.w3.org/2000/svg"
 width="193.000000pt" height="193.000000pt" viewBox="0 0 193.000000 193.000000"
 preserveAspectRatio="xMidYMid meet">
<metadata>
Created by potrace 1.11, written by Peter Selinger 2001-2013
</metadata>
<g transform="translate(0.000000,193.000000) scale(0.100000,-0.100000)"
fill="#000000" stroke="none">
<path d="M1800 1456 c0 -7 -11 -23 -25 -36 -24 -22 -36 -80 -17 -80 19 0 31
-51 25 -102 -7 -59 -63 -182 -92 -200 -10 -6 -16 -19 -14 -28 2 -9 -10 -33
-28 -53 -18 -21 -34 -44 -35 -53 -1 -8 -14 -24 -28 -35 -13 -11 -48 -52 -77
-92 -91 -125 -100 -130 -232 -130 -192 0 -254 21 -305 104 -24 39 -29 69 -11
69 8 0 7 5 -1 15 -9 11 -11 35 -5 88 4 39 9 84 10 98 2 14 24 54 50 87 42 54
48 67 52 124 4 52 2 67 -13 85 l-19 23 -70 -62 c-40 -35 -71 -70 -72 -82 0
-12 -1 -25 -2 -31 -1 -5 -13 -23 -27 -40 -14 -16 -29 -34 -32 -40 -4 -5 -20
-17 -37 -25 -16 -9 -51 -42 -77 -74 -26 -33 -59 -67 -73 -76 -14 -9 -41 -43
-60 -76 -58 -97 -152 -170 -226 -176 -18 -2 -41 -11 -51 -21 -23 -22 -80 -22
-100 1 -9 9 -23 51 -32 92 -9 41 -20 92 -25 113 -8 34 -5 44 24 86 24 34 30
52 23 59 -7 7 -4 19 11 38 14 17 18 31 12 38 -6 7 5 28 35 61 24 28 44 54 44
59 0 5 21 31 46 58 l45 49 -6 57 c-10 88 -22 112 -57 112 -43 0 -116 -53 -120
-88 -2 -21 -9 -28 -33 -32 -24 -4 -30 -10 -29 -30 0 -29 -24 -72 -37 -65 -11
7 -55 -70 -81 -142 -36 -102 -25 -276 28 -418 53 -142 81 -183 118 -176 6 1
27 -5 47 -15 52 -23 91 -13 178 46 41 28 86 53 100 56 14 3 31 7 37 9 6 2 21
24 33 48 13 26 46 66 79 94 31 26 78 69 104 94 l47 45 10 -25 c5 -14 19 -57
31 -96 25 -80 37 -102 86 -151 19 -20 50 -55 69 -79 29 -35 46 -45 98 -60 34
-9 88 -19 119 -22 51 -4 65 -1 130 32 196 100 377 266 441 407 9 20 17 43 17
52 0 10 12 29 27 44 16 16 40 65 60 122 31 88 34 103 31 197 -3 88 -6 105 -24
123 -25 26 -94 44 -94 26z"/>
</g>
</svg>
